<svg width="25" height="25" fill="none" xmlns="http://www.w3.org/2000/svg"><path fill-rule="evenodd" clip-rule="evenodd" d="M8.56 2.238h8.381c3.089 0 4.809 1.78 4.809 4.83v10.33c0 3.1-1.72 4.84-4.809 4.84H8.56c-3.04 0-4.81-1.74-4.81-4.84V7.068c0-3.05 1.77-4.83 4.81-4.83zm.27 4.66v-.01h2.989c.431 0 .781.35.781.78 0 .44-.35.79-.781.79H8.83a.78.78 0 010-1.56zm0 6.08h7.84a.781.781 0 000-1.56H8.83a.781.781 0 000 1.56zm0 4.57h7.84c.399-.04.7-.38.7-.78 0-.41-.301-.75-.7-.79H8.83a.795.795 0 00-.75 1.21c.16.25.45.4.75.36z" fill="#BCBCBC"/></svg>