<svg width="25" height="25" viewBox="0 0 25 25" fill="none" xmlns="http://www.w3.org/2000/svg">
<path fill-rule="evenodd" clip-rule="evenodd" d="M8.56 2.2384H16.941C20.03 2.2384 21.75 4.0184 21.75 7.0684V17.3984C21.75 20.4984 20.03 22.2384 16.941 22.2384H8.56C5.52 22.2384 3.75 20.4984 3.75 17.3984V7.0684C3.75 4.0184 5.52 2.2384 8.56 2.2384ZM8.83 6.8984V6.8884H11.819C12.25 6.8884 12.6 7.2384 12.6 7.6674C12.6 8.1084 12.25 8.4584 11.819 8.4584H8.83C8.399 8.4584 8.05 8.1084 8.05 7.6784C8.05 7.2484 8.399 6.8984 8.83 6.8984ZM8.83 12.9784H16.67C17.1 12.9784 17.45 12.6284 17.45 12.1984C17.45 11.7684 17.1 11.4174 16.67 11.4174H8.83C8.399 11.4174 8.05 11.7684 8.05 12.1984C8.05 12.6284 8.399 12.9784 8.83 12.9784ZM8.83 17.5484H16.67C17.069 17.5084 17.37 17.1674 17.37 16.7684C17.37 16.3584 17.069 16.0184 16.67 15.9784H8.83C8.53 15.9484 8.24 16.0884 8.08 16.3484C7.92 16.5984 7.92 16.9284 8.08 17.1884C8.24 17.4384 8.53 17.5884 8.83 17.5484Z" fill="#BCBCBC"/>
</svg>
