<svg width="24" height="25" viewBox="0 0 24 25" fill="none" xmlns="http://www.w3.org/2000/svg">
<path d="M19.9902 19.4531C20.5471 19.4534 21 19.9124 21 20.4766C21 21.0418 20.5471 21.4998 19.9902 21.5H14.2793C13.7224 21.4998 13.2695 21.0419 13.2695 20.4766C13.2696 19.9124 13.7224 19.4533 14.2793 19.4531H19.9902ZM12.2412 4.45703C13.1538 3.28531 14.7463 3.17799 16.0303 4.19922L17.5049 5.37109C18.1097 5.84407 18.5134 6.46737 18.6514 7.12305C18.8105 7.84415 18.6403 8.55244 18.1631 9.16504L9.37598 20.5283C8.97274 21.044 8.37869 21.334 7.74219 21.3447L4.24023 21.3877C4.0493 21.3876 3.89009 21.2589 3.84766 21.0762L3.05176 17.625C2.91398 16.9909 3.05194 16.3352 3.45508 15.8301L9.68457 7.76758C9.79068 7.63908 9.98121 7.61856 10.1084 7.71387L12.7295 9.7998C12.8993 9.93955 13.1329 10.0147 13.377 9.98242C13.8969 9.91792 14.2474 9.44469 14.1943 8.93945C14.1625 8.68164 14.0349 8.46685 13.8652 8.30566C13.8122 8.26267 11.3184 6.2627 11.3184 6.2627C11.1593 6.13368 11.1276 5.89743 11.2549 5.7373L12.2412 4.45703Z" fill="#FF3F3F"/>
</svg>
