<svg width="25" height="25" fill="none" xmlns="http://www.w3.org/2000/svg"><path d="M9.385 21.012v-3.058c0-.78.637-1.413 1.423-1.413h2.875c.377 0 .74.149 1.006.414.267.265.417.624.417.999v3.058c-.002.324.126.636.356.867.23.23.544.36.87.36h1.962a3.46 3.46 0 002.443-1 3.41 3.41 0 001.013-2.423v-8.71c0-.735-.328-1.432-.895-1.903l-6.671-5.289a3.097 3.097 0 00-3.949.071L3.717 8.203a2.474 2.474 0 00-.967 1.902v8.702c0 1.895 1.547 3.431 3.456 3.431h1.916c.68 0 1.231-.543 1.236-1.217l.027-.01z" fill="#232323"/></svg>