<svg width="25" height="25" viewBox="0 0 25 25" fill="none" xmlns="http://www.w3.org/2000/svg">
<path d="M9.38478 21.0117V17.954C9.38478 17.1735 10.0222 16.5407 10.8084 16.5407H13.6826C14.0602 16.5407 14.4223 16.6896 14.6893 16.9547C14.9563 17.2197 15.1063 17.5792 15.1063 17.954V21.0117C15.1039 21.3363 15.2321 21.6483 15.4624 21.8786C15.6927 22.1089 16.0061 22.2384 16.3329 22.2384H18.2938C19.2096 22.2408 20.0888 21.8812 20.7372 21.2392C21.3856 20.5972 21.75 19.7254 21.75 18.8162V10.1053C21.75 9.37086 21.4221 8.67425 20.8546 8.20307L14.184 2.91427C13.0237 1.98697 11.3611 2.01691 10.2354 2.98538L3.71701 8.20307C3.12274 8.66036 2.76755 9.35904 2.75 10.1053V18.8073C2.75 20.7023 4.29738 22.2384 6.20617 22.2384H8.12229C8.80123 22.2384 9.353 21.6946 9.35792 21.0206L9.38478 21.0117Z" fill="#232323"/>
</svg>
